:SAMPLES-PER-SECOND 30
:FULLY-SPECIFIED
:DEGREES
360
root  -7.00816 34.3477 -26.4922 -157.007 75.958 -166.215
RightUpLeg  -13.0431 -5.38674 4.63202
RightLeg  12.4437 2.78251 0.429318
RightFoot  -3.51301 -0.0171787 -0.0239653
RightToes  -40.2791 -0.220716 -0.315926
Spine  0.473992 -0.863644 2.88495
Spine1  0.912131 -1.60585 6.35037
HEad  -47.2961 -5.66038 6.13489
LeftShoulder1  -1.94126e-019 -3.10601e-018 -2.51263e-017
LeftArm  -13.4206 28.3637 -84.4621
LeftForeArm  25.3239 -27.3674 -4.48955
LeftHand  -0.559059 -1.56074 9.50703
RightShoulder  -4.96962e-017 0 -2.36833e-017
RightArm  -12.0535 -19.0393 63.3134
RightForeArm  70.0279 75.7904 36.5438
RightHand  -0.366809 -0.694866 -9.04466
LeftUpLeg  -21.6641 12.8525 4.84089
LeftLeg  40.3498 22.6566 15.9965
LeftFoot  -3.76578 -0.0642133 -1.7915
LeftToes  -5.49015 2.25955e-006 -3.67304e-008
361
root  -7.0316 34.3777 -26.4982 -158.056 76.024 -167.434
RightUpLeg  -13.2952 -5.26749 4.32274
RightLeg  12.6259 2.53001 0.398629
RightFoot  -3.6899 -0.017672 -0.0112047
RightToes  -40.4391 -0.222001 -0.316328
Spine  0.729241 -0.678993 2.73824
Spine1  1.43645 -1.24556 6.06568
HEad  -45.2396 -6.6642 5.90193
LeftShoulder1  -1.94126e-019 -3.10601e-018 -2.51263e-017
LeftArm  -12.3365 27.2943 -83.9176
LeftForeArm  26.2872 -34.1195 -6.04815
LeftHand  -0.57332 -1.70451 9.55817
RightShoulder  -4.96962e-017 0 -2.36833e-017
RightArm  -13.6745 -13.7093 62.9124
RightForeArm  130.027 81.2645 98.1326
RightHand  -0.311409 -1.33292 -8.79973
LeftUpLeg  -24.6275 13.2968 4.06779
LeftLeg  41.4759 19.8345 14.7361
LeftFoot  -3.91881 -0.0607884 -1.61512
LeftToes  -6.82898 2.25955e-006 -3.67304e-008
362
root  -7.00987 34.4434 -26.5271 -159.689 75.9504 -169.361
RightUpLeg  -13.2401 -5.10595 3.8786
RightLeg  12.2135 1.91666 0.288117
RightFoot  -3.8816 -0.0173631 0.0283212
RightToes  -39.7394 -0.216404 -0.314881
Spine  0.938231 -0.517665 2.44602
Spine1  1.8617 -0.940514 5.50643
HEad  -43.2277 -7.47582 5.26455
LeftShoulder1  -1.94126e-019 -3.10601e-018 -2.51263e-017
LeftArm  -10.8028 26.4545 -82.9848
LeftForeArm  27.3236 -40.701 -7.83765
LeftHand  -0.605994 -1.75714 10.0214
RightShoulder  -4.96962e-017 0 -2.36833e-017
RightArm  -15.7153 -7.02099 63.4149
RightForeArm  172.152 76.7662 139.948
RightHand  -0.283947 -2.22229 -10.1396
LeftUpLeg  -27.1661 13.6635 2.86984
LeftLeg  40.6144 19.9596 14.3856
LeftFoot  -2.85296 -0.0319256 -1.12042
LeftToes  -9.4952 2.25955e-006 -3.67304e-008
363
root  -6.94616 34.5006 -26.564 -160.96 75.7445 -170.922
RightUpLeg  -12.9042 -4.67634 3.53143
RightLeg  11.3999 0.733761 0.100233
RightFoot  -4.0302 -0.0152243 0.114777
RightToes  -38.6145 -0.207511 -0.312239
Spine  1.15393 -0.132251 2.11175
Spine1  2.31081 -0.136938 4.80853
HEad  -42.0196 -8.40585 4.49634
LeftShoulder1  -1.94126e-019 -3.10601e-018 -2.51263e-017
LeftArm  -8.76964 25.2404 -81.8797
LeftForeArm  28.2584 -46.2071 -9.64778
LeftHand  -0.622299 -1.81672 10.205
RightShoulder  -4.96962e-017 0 -2.36833e-017
RightArm  -18.0549 -0.314307 64.2541
RightForeArm  -176.429 73.1608 150.297
RightHand  -0.294304 -2.78614 -12.741
LeftUpLeg  -29.3188 13.7769 1.71502
LeftLeg  38.131 20.3578 13.4163
LeftFoot  -1.55844 -0.0092747 -0.520344
LeftToes  -11.9324 2.25955e-006 -3.67304e-008
364
root  -6.8269 34.5297 -26.6281 -161.481 75.4918 -171.775
RightUpLeg  -12.5964 -4.67237 3.3529
RightLeg  10.6921 0.0194317 0.00331352
RightFoot  -4.11915 -0.0137162 0.170159
RightToes  -38.0479 -0.20339 -0.309057
Spine  1.34419 0.454584 1.78285
Spine1  2.70773 1.11394 4.08734
HEad  -41.8412 -9.33068 3.63969
LeftShoulder1  -1.94126e-019 -3.10601e-018 -2.51263e-017
LeftArm  -6.68428 23.6397 -81.0285
LeftForeArm  29.1833 -50.0756 -11.1516
LeftHand  -0.662551 -2.02805 10.5575
RightShoulder  -4.96962e-017 0 -2.36833e-017
RightArm  -19.8669 5.73008 65.5223
RightForeArm  -176.246 74.0989 148.548
RightHand  -0.224998 -4.02377 -18.2963
LeftUpLeg  -31.1013 13.5648 0.731195
LeftLeg  34.3655 19.2558 11.0671
LeftFoot  -0.572372 -0.00102535 -0.0437564
LeftToes  -14.4777 2.25955e-006 -3.67304e-008
365
root  -6.65312 34.5217 -26.7341 -161.185 75.2838 -171.841
RightUpLeg  -12.527 -5.36797 3.31217
RightLeg  10.493 0.106754 0.0136947
RightFoot  -4.10444 -0.0144907 0.166035
RightToes  -38.5842 -0.200823 -0.305987
Spine  1.51327 1.13477 1.49788
Spine1  3.05491 2.5475 3.47207
HEad  -42.4273 -10.2708 2.89857
LeftShoulder1  -1.94126e-019 -3.10601e-018 -2.51263e-017
LeftArm  -4.54649 21.5135 -80.6436
LeftForeArm  29.7475 -51.9082 -11.9494
LeftHand  -0.66509 -2.17823 10.3976
RightShoulder  -4.96962e-017 0 -2.36833e-017
RightArm  -20.7119 11.3026 67.0696
RightForeArm  164.972 79.5151 127.147
RightHand  -0.268546 -4.14252 -24.3165
LeftUpLeg  -32.3726 13.0212 0.0204003
LeftLeg  29.8229 16.639 7.99517
LeftFoot  0.158493 -0.000117146 0.246497
LeftToes  -18.0968 2.25955e-006 -3.67304e-008
366
root  -6.41694 34.4875 -26.8779 -160.854 75.4109 -171.836
RightUpLeg  -12.7884 -5.94229 3.17073
RightLeg  11.1226 0.758799 0.0999299
RightFoot  -3.95454 -0.0147098 0.122164
RightToes  -39.6175 -0.199892 -0.303682
Spine  1.57671 1.841 1.16306
Spine1  3.17737 3.9993 2.80922
HEad  -42.7029 -11.2577 2.27184
LeftShoulder1  -1.94126e-019 -3.10601e-018 -2.51263e-017
LeftArm  -2.704 19.283 -80.6856
LeftForeArm  29.9452 -51.543 -11.7575
LeftHand  -0.682153 -2.57317 10.1568
RightShoulder  -4.96962e-017 0 -2.36833e-017
RightArm  -20.3093 17.3272 68.755
RightForeArm  85.467 78.311 44.8111
RightHand  -0.149706 -4.85013 -31.8111
LeftUpLeg  -32.9567 12.4006 -0.481204
LeftLeg  25.6145 13.659 5.42799
LeftFoot  1.75121 -0.0075612 0.656309
LeftToes  -21.1382 2.25955e-006 -3.67304e-008
367
root  -6.08364 34.4201 -27.043 -160.559 75.9221 -171.685
RightUpLeg  -13.2399 -6.45393 2.9782
RightLeg  12.5937 2.0918 0.328508
RightFoot  -3.17912 -0.0135578 0.0553887
RightToes  -39.1597 -0.200683 -0.302796
Spine  1.54849 2.47525 0.765515
Spine1  3.10615 5.26773 2.06112
HEad  -42.2655 -11.8963 1.79125
LeftShoulder1  -1.94126e-019 -3.10601e-018 -2.51263e-017
LeftArm  -1.76573 17.3334 -81.1166
LeftForeArm  30.5126 -49.2874 -10.7038
LeftHand  -0.706574 -2.89922 10.1197
RightShoulder  -4.96962e-017 0 -2.36833e-017
RightArm  -18.3661 24.9752 70.5481
RightForeArm  57.4982 57.9978 12.8653
RightHand  -0.347728 -4.19792 -33.3163
LeftUpLeg  -32.7473 11.7463 -0.637871
LeftLeg  23.0826 11.2699 3.93387
LeftFoot  5.29831 -0.053744 1.32306
LeftToes  -18.3574 2.25955e-006 -3.67304e-008
368
root  -5.63157 34.2955 -27.2544 -160.404 76.6478 -171.192
RightUpLeg  -13.9357 -7.69117 2.72062
RightLeg  15.9366 4.27287 0.926983
RightFoot  -3.72862 -0.0209774 -0.116013
RightToes  -38.0734 -0.203279 -0.303982
Spine  1.55161 3.1519 0.298158
Spine1  3.08695 6.64228 1.14613
HEad  -41.1289 -12.2274 1.62664
LeftShoulder1  -1.94126e-019 -3.10601e-018 -2.51263e-017
LeftArm  -1.76556 15.691 -81.6512
LeftForeArm  30.9143 -45.9056 -9.34505
LeftHand  -0.713063 -3.15738 9.91863
RightShoulder  -4.96962e-017 0 -2.36833e-017
RightArm  -15.3949 34.0673 72.7774
RightForeArm  53.8951 29.2535 3.4937
RightHand  -0.417209 -3.36425 -23.465
LeftUpLeg  -31.4891 10.5559 -0.266536
LeftLeg  22.4834 11.3864 3.84212
LeftFoot  8.24936 -0.130062 1.96497
LeftToes  -11.5732 2.25955e-006 -3.67304e-008
369
root  -5.16518 34.0987 -27.554 -163.813 76.919 -174.223
RightUpLeg  -15.8805 -10.8554 1.59351
RightLeg  22.3119 6.9939 2.34794
RightFoot  -5.68916 -0.0517973 -0.534054
RightToes  -39.0802 -0.211177 -0.309868
Spine  1.78759 4.15233 -0.426116
Spine1  3.44995 9.14666 -0.561448
HEad  -40.2789 -12.9702 2.02162
LeftShoulder1  -1.94126e-019 -3.10601e-018 -2.51263e-017
LeftArm  -2.25301 13.8477 -82.0321
LeftForeArm  30.3055 -42.4344 -8.19297
LeftHand  -0.704048 -3.20466 9.74592
RightShoulder  -4.96962e-017 0 -2.36833e-017
RightArm  -12.0724 38.1361 72.7406
RightForeArm  50.9237 9.98997 1.54202
RightHand  -0.398832 -1.38698 -11.4631
LeftUpLeg  -30.6765 8.30872 -0.492372
LeftLeg  23.9091 13.9204 5.06227
LeftFoot  7.12347 -0.124908 2.16809
LeftToes  -13.4246 2.25955e-006 -3.67304e-008
370
root  -4.7726 33.9922 -27.8257 -169.008 76.4818 -179.452
RightUpLeg  -18.571 -15.6074 0.0476615
RightLeg  29.4695 10.2582 4.91085
RightFoot  -6.45005 -0.089408 -1.10295
RightToes  -41.2273 -0.228361 -0.321949
Spine  1.98399 4.52211 -1.54893
Spine1  3.70461 9.71414 -2.66021
HEad  -40.7771 -14.3885 3.50573
LeftShoulder1  -1.94126e-019 -3.10601e-018 -2.51263e-017
LeftArm  -3.23953 12.4473 -81.2291
LeftForeArm  29.8511 -39.6833 -7.37352
LeftHand  -0.690984 -3.24388 9.52924
RightShoulder  -4.96962e-017 0 -2.36833e-017
RightArm  -5.3873 34.9393 72.6515
RightForeArm  61.5797 11.0543 1.51894
RightHand  -0.673271 0.915317 -12.4969
LeftUpLeg  -30.6806 7.03822 -1.58098
LeftLeg  25.61 14.2756 5.66537
LeftFoot  6.11684 -0.0946486 1.93287
LeftToes  -12.9249 2.25955e-006 -3.67304e-008
371
root  -4.40941 33.9427 -27.9897 -168.963 75.1727 -179.686
RightUpLeg  -21.954 -20.2205 -0.265058
RightLeg  36.9956 12.6311 8.16479
RightFoot  -4.04861 -0.0490678 -0.922531
RightToes  -45.5674 -0.264415 -0.344364
Spine  2.18063 4.23887 -1.9696
Spine1  4.07958 8.91379 -3.3576
HEad  -41.5528 -14.2001 3.23712
LeftShoulder1  -1.94126e-019 -3.10601e-018 -2.51263e-017
LeftArm  -6.52524 12.553 -80.916
LeftForeArm  29.2807 -37.602 -6.80488
LeftHand  -0.68059 -2.78311 9.88799
RightShoulder  -4.96962e-017 0 -2.36833e-017
RightArm  -1.78328 31.0974 72.0285
RightForeArm  52.8331 19.8659 1.6754
RightHand  -0.467245 -1.83035 -15.079
LeftUpLeg  -31.2183 8.90207 -2.37859
LeftLeg  26.6601 11.3304 4.75827
LeftFoot  4.75032 -0.0450707 1.24814
LeftToes  -11.189 2.25955e-006 -3.67304e-008
372
root  -4.13052 33.8713 -28.123 -167.028 73.7262 -178.222
RightUpLeg  -25.7273 -23.2503 -0.199753
RightLeg  43.9377 13.0992 10.8395
RightFoot  -0.163824 -0.0009444 0.128929
RightToes  -53.6808 -0.335919 -0.378686
Spine  2.43413 3.76555 -1.86321
Spine1  4.53737 8.02741 -3.23204
HEad  -41.4655 -11.9069 0.953861
LeftShoulder1  -1.94126e-019 -3.10601e-018 -2.51263e-017
LeftArm  -10.1978 13.541 -80.8965
LeftForeArm  27.4524 -35.7982 -6.41508
LeftHand  -0.677691 -2.0892 10.7097
RightShoulder  -4.96962e-017 0 -2.36833e-017
RightArm  -4.70745 27.4974 69.1081
RightForeArm  48.2039 33.7891 4.76472
RightHand  -0.441531 -1.07217 -11.8097
LeftUpLeg  -32.1301 10.0225 -2.58046
LeftLeg  27.7374 9.05856 4.01612
LeftFoot  3.35359 -0.0171468 0.803501
LeftToes  -10.2106 2.25955e-006 -3.67304e-008
373
root  -3.90362 33.8199 -28.1999 -164.98 72.408 -176.704
RightUpLeg  -28.7777 -24.6127 -0.130209
RightLeg  48.1634 13.2071 12.6145
RightFoot  1.28296 -0.00266382 0.621741
RightToes  -50.8429 -0.310364 -0.367837
Spine  2.58005 3.25983 -1.79267
Spine1  4.7976 7.09273 -3.1933
HEad  -40.7303 -9.52217 -0.994355
LeftShoulder1  -1.94126e-019 -3.10601e-018 -2.51263e-017
LeftArm  -12.3878 14.7778 -80.075
LeftForeArm  25.3198 -33.8906 -6.03949
LeftHand  -0.649676 -1.39122 11.2794
RightShoulder  -4.96962e-017 0 -2.36833e-017
RightArm  -6.13266 25.5237 65.6784
RightForeArm  49.223 46.3205 8.24402
RightHand  -0.304907 -1.52994 -9.02917
LeftUpLeg  -33.113 9.40028 -2.15192
LeftLeg  28.9838 8.47407 3.98068
LeftFoot  2.35258 -0.00805805 0.61166
LeftToes  -9.67707 2.25955e-006 -3.67304e-008
374
root  -3.68596 33.8265 -28.2094 -162.595 71.1222 -174.741
RightUpLeg  -30.5871 -24.6442 -0.0352415
RightLeg  47.959 11.8309 11.2717
RightFoot  0.522324 -0.000376398 0.38553
RightToes  -49.6518 -0.299803 -0.362908
Spine  2.83689 3.06352 -1.6795
Spine1  5.27482 6.79255 -3.08604
HEad  -39.6988 -8.48065 -1.96738
LeftShoulder1  -1.94126e-019 -3.10601e-018 -2.51263e-017
LeftArm  -12.4815 15.0653 -78.9581
LeftForeArm  23.6547 -30.8514 -5.38031
LeftHand  -0.629511 -1.0554 11.4779
RightShoulder  -4.96962e-017 0 -2.36833e-017
RightArm  -9.43366 23.7593 61.1963
RightForeArm  50.8693 58.451 13.6537
RightHand  -0.214079 -2.08666 -7.2489
LeftUpLeg  -33.9296 8.19194 -1.18829
LeftLeg  30.0371 8.46141 4.16495
LeftFoot  1.87783 -0.00625132 0.543003
LeftToes  -9.67854 2.25955e-006 -3.67304e-008
